<svg xmlns="http://www.w3.org/2000/svg" viewBox="0 0 512 512" role="img" aria-label="Punktezettel">
  <rect width="512" height="512" fill="#1b5e20"/>
  <g transform="rotate(-15 208 244)">
    <rect x="118" y="118" width="180" height="252" rx="16" fill="#e2ddd2"/>
    <rect x="134" y="134" width="148" height="220" rx="12" fill="none" stroke="#b3261e" stroke-width="3.5" opacity="0.28"/>
    <path transform="translate(208 244) scale(3.1) translate(-12 -12)" fill="#b3261e" d="M12 21.35l-1.45-1.32C5.4 15.36 2 12.28 2 8.5 2 5.42 4.42 3 7.5 3c1.74 0 3.41.81 4.5 2.09C13.09 3.81 14.76 3 16.5 3 19.58 3 22 5.42 22 8.5c0 3.78-3.4 6.86-8.55 11.54L12 21.35z"/>
  </g>
  <g transform="rotate(8 304 272)">
    <rect x="208" y="138" width="192" height="268" rx="16" fill="#f6f4ef"/>
    <text x="250" y="212" font-family="Georgia, 'Times New Roman', Times, serif" font-size="52" font-weight="700" fill="#b3261e">Q</text>
    <path transform="translate(304 300) scale(4.2) translate(-12 -12)" fill="#b3261e" d="M12 21.35l-1.45-1.32C5.4 15.36 2 12.28 2 8.5 2 5.42 4.42 3 7.5 3c1.74 0 3.41.81 4.5 2.09C13.09 3.81 14.76 3 16.5 3 19.58 3 22 5.42 22 8.5c0 3.78-3.4 6.86-8.55 11.54L12 21.35z"/>
  </g>
</svg>
